<?xml version="1.0" encoding="utf-8"?>
<!-- Generator: Adobe Illustrator 21.0.2, SVG Export Plug-In . SVG Version: 6.00 Build 0)  -->
<svg version="1.1" id="Layer_1" xmlns="http://www.w3.org/2000/svg" xmlns:xlink="http://www.w3.org/1999/xlink" x="0px" y="0px"
	 viewBox="0 0 284.9 72.1" style="enable-background:new 0 0 284.9 72.1;" xml:space="preserve">
<style type="text/css">
	.st0{fill:#FFFFFF;}
</style>
<g>
	<g>
		<path class="st0" d="M98,27c0,1.8-1.4,3.2-3.2,3.2h-5.6v22.6c0,1.8-1.4,3.2-3.2,3.2c-1.7,0-3.1-1.4-3.1-3.2V30.2h-3.5
			c-1.7,0-3.1-1.4-3.1-3.2c0-1.7,1.4-3.1,3.1-3.1h3.5c-0.1-4.5,1.6-8.7,4.7-11.8c1.7-1.7,3.7-3,6-3.8c1.6-0.6,3.5,0.3,4,1.9
			c0.6,1.6-0.3,3.5-1.9,4c-1.3,0.4-2.6,1.2-3.6,2.3c-1.9,1.9-2.8,4.4-2.8,7.3h5.6C96.6,23.9,98,25.3,98,27z"/>
		<path class="st0" d="M101.7,52.9V11.2c0-1.7,1.4-3.1,3.2-3.1c1.7,0,3.1,1.4,3.1,3.1v41.7c0,1.8-1.4,3.2-3.1,3.2
			C103.1,56.1,101.7,54.7,101.7,52.9z"/>
		<path class="st0" d="M112.9,16.6c-0.6-0.6-1-1.4-1-2.2s0.4-1.7,1-2.2s1.4-1,2.2-1c0.8,0,1.7,0.4,2.2,1c0.6,0.6,0.9,1.4,0.9,2.2
			s-0.3,1.7-0.9,2.2c-0.6,0.6-1.4,0.9-2.2,0.9C114.3,17.5,113.5,17.2,112.9,16.6z M112,52.9V27.1c0-1.7,1.4-3.1,3.2-3.1
			c1.7,0,3.1,1.4,3.1,3.1v25.8c0,1.8-1.4,3.2-3.1,3.2C113.4,56.1,112,54.7,112,52.9z"/>
		<path class="st0" d="M128.6,53v15.9c0,1.7-1.4,3.1-3.1,3.1c-1.8,0-3.2-1.4-3.2-3.1V40.2v-0.1c0-8.8,7.2-16.1,16.1-16.1
			c8.9,0,16.1,7.2,16.1,16.1c0,8.9-7.2,16.1-16.1,16.1C134.6,56.3,131.2,55,128.6,53z M128.6,40.2L128.6,40.2c0,5.4,4.4,9.7,9.7,9.7
			c5.4,0,9.7-4.4,9.7-9.7c0-5.3-4.4-9.7-9.7-9.7C132.9,30.5,128.6,34.8,128.6,40.2z"/>
		<path class="st0" d="M202.9,37c0.1,0.1,0.1,0.2,0.1,0.3v15.6c0,1.8-1.5,3.2-3.2,3.2c-1.7,0-3.1-1.4-3.1-3.2V37.4
			c0-0.1,0-0.2,0-0.3c0-0.1,0-0.1,0-0.3c0-3.6-2.9-6.5-6.5-6.5c-3.6,0-6.5,2.9-6.5,6.5v16.1c0,1.8-1.4,3.2-3.1,3.2
			c-1.7,0-3.2-1.4-3.2-3.2V36.8c0-3.6-2.9-6.5-6.5-6.5c-3.6,0-6.5,2.9-6.5,6.5v16.1c0,1.8-1.4,3.2-3.1,3.2c-1.8,0-3.2-1.4-3.2-3.2
			V36.8c0-7,5.8-12.8,12.9-12.8c3.8,0,7.3,1.7,9.7,4.4c2.4-2.8,5.8-4.4,9.7-4.4c7.1,0,12.9,5.8,12.9,12.8C203,36.9,203,37,202.9,37z
			"/>
		<path class="st0" d="M207.8,16.6c-0.6-0.6-1-1.4-1-2.2s0.4-1.7,1-2.2s1.4-1,2.2-1c0.8,0,1.7,0.4,2.2,1c0.6,0.6,0.9,1.4,0.9,2.2
			s-0.3,1.7-0.9,2.2c-0.6,0.6-1.4,0.9-2.2,0.9C209.3,17.5,208.4,17.2,207.8,16.6z M206.9,52.9V27.1c0-1.7,1.4-3.1,3.2-3.1
			c1.7,0,3.1,1.4,3.1,3.1v25.8c0,1.8-1.4,3.2-3.1,3.2C208.3,56.1,206.9,54.7,206.9,52.9z"/>
		<path class="st0" d="M249,39.9v12.9c0,1.8-1.4,3.2-3.2,3.2c-1.7,0-3.1-1.4-3.1-3.2V39.9c0-5.4-4.4-9.7-9.7-9.7s-9.7,4.4-9.7,9.7
			v12.9c0,1.8-1.4,3.2-3.2,3.2c-1.7,0-3.1-1.4-3.1-3.2V39.9c0-8.9,7.2-16.1,16.1-16.1C241.8,23.9,249,31,249,39.9z"/>
		<path class="st0" d="M284.9,39.9c0,1.7-1.4,3.1-3.2,3.1h-22.1c1.3,3.8,4.9,6.6,9.2,6.6c1.5,0,4.1-0.1,7.2-2.1
			c1.5-1,3.5-0.1,4.2,1.5c0.8,1.6-0.1,3.3-1.5,4.2c-4.2,2.8-7.5,2.8-9.9,2.8c-8.9,0-16.1-7.2-16.1-16.1c0-8.9,7.2-16.1,16.1-16.1
			C276.6,23.9,284.9,29.5,284.9,39.9z M259.6,36.7h18.5c-1.3-4.5-5.4-6.5-9.3-6.5C264.5,30.2,261,33,259.6,36.7z"/>
	</g>
	<g>
		<path class="st0" d="M58.7,31.4c0.7,0.5,1.7,0.2,1.9-0.6c2.5-9.4-0.7-19.9-9.1-26s-19.3-6.2-27.5-1c-0.7,0.4-0.7,1.5,0,2
			L58.7,31.4z"/>
		<path class="st0" d="M64.2,43.4L10.8,4c-0.4-0.3-0.9-0.2-1.2,0.2l-4.8,6.5c-0.3,0.4-0.2,0.9,0.2,1.2l2.6,1.9L3.8,34
			c-0.3,0.9,0.1,1.8,0.8,2.4l30.5,22.5c0.8,0.6,1.7,0.6,2.6,0.1L56,49.5l2.6,1.9c0.4,0.3,0.9,0.2,1.2-0.2l4.8-6.5
			C64.7,44.2,64.6,43.7,64.2,43.4z"/>
		<ellipse transform="matrix(0.5931 -0.8051 0.8051 0.5931 -40.8493 43.8672)" class="st0" cx="23" cy="62.4" rx="4.9" ry="4.9"/>
		<ellipse transform="matrix(0.5932 -0.8051 0.8051 0.5932 -37.48 23.8874)" class="st0" cx="4.9" cy="49" rx="4.9" ry="4.9"/>
	</g>
</g>
</svg>
